<svg width="18" height="20" viewBox="0 0 18 20" fill="none" xmlns="http://www.w3.org/2000/svg">
<path d="M17.2833 13.6629V6.4259C17.2829 6.10863 17.1992 5.79701 17.0404 5.52233C16.8816 5.24764 16.6534 5.01954 16.3786 4.8609L10.0463 1.24239C9.77122 1.0836 9.45923 1 9.14164 1C8.82405 1 8.51205 1.0836 8.23701 1.24239L1.90463 4.8609C1.62986 5.01954 1.40164 5.24764 1.24286 5.52233C1.08408 5.79701 1.00033 6.10863 1 6.4259V13.6629C1.00033 13.9802 1.08408 14.2918 1.24286 14.5665C1.40164 14.8412 1.62986 15.0693 1.90463 15.2279L8.23701 18.8464C8.51205 19.0052 8.82405 19.0888 9.14164 19.0888C9.45923 19.0888 9.77122 19.0052 10.0463 18.8464L16.3786 15.2279C16.6534 15.0693 16.8816 14.8412 17.0404 14.5665C17.1992 14.2918 17.2829 13.9802 17.2833 13.6629Z" stroke="white" stroke-linecap="round" stroke-linejoin="round"/>
<path d="M5.07031 3L9.14113 5.35203L13.2119 3" stroke="white" stroke-linecap="round" stroke-linejoin="round"/>
<path d="M5.07082 17.09V12.395L1 10.043" stroke="white" stroke-linecap="round" stroke-linejoin="round"/>
<path d="M17.2837 10.043L13.2129 12.395V17.09" stroke="white" stroke-linecap="round" stroke-linejoin="round"/>
<path d="M1.24219 5.48438L9.13957 10.0527L17.037 5.48438" stroke="white" stroke-linecap="round" stroke-linejoin="round"/>
<path d="M9.14062 19.1616V10.043" stroke="white" stroke-linecap="round" stroke-linejoin="round"/>
</svg>
