<svg width="79" height="36" viewBox="0 0 79 36" fill="none" xmlns="http://www.w3.org/2000/svg">
<path d="M8.72824 8.3432H6.44922L8.03699 0H10.1617C12.198 0 13.414 1.24152 13.414 3.32132C13.4495 4.63846 12.9819 5.91964 12.1064 6.90421C11.6822 7.37575 11.16 7.74886 10.5765 7.99742C9.99294 8.24599 9.36214 8.364 8.72824 8.3432ZM8.88209 0.994349L7.67873 7.34929H8.72824C9.21375 7.36956 9.69768 7.2815 10.1449 7.09149C10.5922 6.90148 10.9916 6.61429 11.3141 6.25075C11.9719 5.46956 12.3191 4.47346 12.2895 3.45254C12.2895 1.86141 11.4749 1.02007 9.93378 1.02007H8.88209V0.994349Z" fill="white"/>
<path d="M15.6146 0H20.2755L20.0706 0.993912H16.4601L15.9994 3.40023H18.944L18.7648 4.39414H15.8199L15.2563 7.34972H18.995L18.7901 8.34363H14.002L15.6146 0Z" fill="white"/>
<path d="M21.7864 0H22.8368L21.4286 7.34929H25.0391L24.8343 8.3432H20.1738L21.7864 0Z" fill="white"/>
<path d="M27.8294 0H28.8798L27.2672 8.36979H26.2168L27.8294 0Z" fill="white"/>
<path d="M35.2552 0H36.3819L31.9777 8.36979H30.9278L29.7754 0H30.8763L31.7214 6.87849L35.2552 0Z" fill="white"/>
<path d="M37.4335 0H42.0935L41.8887 0.993913H38.2781L37.8175 3.40023H40.762L40.5829 4.39414H37.6383L37.0748 7.34929H40.8143L40.6095 8.3432H35.8457L37.4335 0Z" fill="white"/>
<path d="M43.0393 8.36979H41.9902L43.6028 0H46.2149C47.5298 0 48.3147 0.704022 48.3147 1.8832C48.3516 2.50031 48.1439 3.10708 47.7367 3.57214C47.3294 4.0372 46.7555 4.32312 46.139 4.36799L47.8279 8.36979H46.6511L45.0115 4.4203H43.8077L43.0397 8.36979H43.0393ZM44.4479 0.968193V0.994349L43.9881 3.40023H45.6269C46.6655 3.40023 47.2147 2.92986 47.2147 2.04014C47.2147 1.3287 46.8181 0.967757 46.0379 0.967757L44.4479 0.968193Z" fill="white"/>
<path d="M50.6709 4.75988L49.1855 0H50.2865L51.3621 3.71366L53.8203 0H54.9727L51.6951 4.75988L51.0034 8.36979H49.9539L50.6709 4.75988Z" fill="white"/>
<g opacity="0.75">
<path opacity="0.75" d="M1.99424 33.4585C3.17949 27.6386 4.33851 21.7394 5.52175 15.7875L9.07964 15.6664C8.64578 17.9473 8.18663 20.2281 7.7532 22.5089C10.1342 22.4543 12.4897 22.4261 14.8707 22.3715C15.3025 20.0645 15.7623 17.7314 16.1951 15.3982L19.7534 15.2771C18.5726 21.464 17.4164 27.5991 16.2347 33.6805L12.6749 33.6446C13.2062 30.944 13.737 28.2439 14.268 25.5167C11.8867 25.5452 9.53118 25.5734 7.14959 25.5757C6.61802 28.2514 6.08654 30.8984 5.55464 33.5467C4.37614 33.4823 3.17125 33.4706 1.99424 33.4585Z" fill="white"/>
<path opacity="0.75" d="M28.363 34.0358C28.2581 34.0371 28.1523 34.037 28.0457 34.0357C26.0572 34.0485 24.1403 33.2938 22.6941 31.9287C21.2508 30.5666 20.5039 28.622 20.4744 26.1496C20.4378 23.0939 21.2942 20.4963 23.019 18.4288C23.9632 17.2535 25.1563 16.3024 26.5124 15.644C27.8685 14.9856 29.3537 14.6364 30.861 14.6215C30.94 14.6185 31.0185 14.6166 31.0963 14.6156C32.0342 14.5812 32.9695 14.734 33.8476 15.0653C34.7257 15.3966 35.529 15.8996 36.2104 16.545C37.6542 17.9076 38.4012 19.9049 38.4321 22.4819C38.4708 25.7202 37.6157 28.4229 35.8911 30.5152C33.982 32.8478 31.5191 33.9981 28.363 34.0358ZM30.7055 17.8656L30.5943 17.8669C29.7227 17.8951 28.8678 18.1136 28.0895 18.507C27.3112 18.9003 26.6282 19.4591 26.0885 20.1442C24.7463 21.7336 24.0407 23.7642 24.1081 25.8436C24.1266 27.3893 24.4933 28.6034 25.1973 29.453C25.5717 29.8875 26.0398 30.2312 26.5664 30.4583C27.093 30.6853 27.6643 30.7898 28.2371 30.7637C28.2986 30.763 28.36 30.7649 28.4211 30.7641C29.2569 30.7554 30.08 30.5577 30.8287 30.1858C31.5774 29.814 32.2324 29.2776 32.7445 28.6168C34.1022 26.9851 34.8072 24.9081 34.7234 22.787C34.7045 21.2126 34.3472 19.9835 33.6615 19.1346C33.3039 18.7047 32.8496 18.3656 32.3358 18.1451C31.822 17.9245 31.2633 17.8287 30.7055 17.8656Z" fill="#8F8F8F"/>
<path opacity="0.75" d="M47.1611 34.051C47.0657 34.0522 46.9606 34.0534 46.839 34.0497C45.5389 34.0255 44.2376 34.0071 43.0248 33.9911L43.0087 33.9913C41.8011 33.9739 40.502 33.9559 39.181 33.9316L39.5381 31.9398L39.541 31.9267L39.6023 31.585L39.6023 31.5789C40.6114 25.9735 41.6509 20.1768 42.6598 14.3778L42.8093 14.3725L42.9757 14.3666C45.0744 14.294 47.245 14.2144 49.3665 14.1149C49.4371 14.1141 49.5064 14.1102 49.5761 14.1093C50.7982 14.0331 52.0029 14.429 52.9417 15.2152C53.3742 15.6483 53.7122 16.1663 53.9346 16.7366C54.1569 17.3069 54.2587 17.9171 54.2336 18.5287C54.2808 19.4818 54.0559 20.4286 53.5852 21.2586C53.1146 22.0886 52.4175 22.7675 51.5755 23.2161C52.8576 23.8229 53.6998 25.3535 53.7208 27.1141C53.7465 29.2613 53.1461 31.0293 51.9849 32.2268C50.8516 33.3952 49.1833 34.0255 47.1611 34.051ZM44.2768 25.3703C43.9043 27.4643 43.624 29.0968 43.3668 30.6641C43.9113 30.6703 44.4592 30.6702 44.9892 30.67L45.0877 30.6688C45.6465 30.6687 46.2245 30.6683 46.7982 30.675L46.8784 30.674C47.7434 30.7095 48.5939 30.443 49.2841 29.9202C49.5886 29.6466 49.8266 29.3071 49.98 28.9275C50.1335 28.5479 50.1982 28.1383 50.1693 27.7298C50.1502 26.1332 49.2876 25.3339 47.6058 25.354C46.4781 25.3414 45.3589 25.3547 44.2763 25.3677L44.2768 25.3703ZM48.5933 17.5752L48.5118 17.5762C48.0365 17.5945 47.5593 17.6067 47.0979 17.6188C46.6133 17.6311 46.1153 17.6441 45.6165 17.664C45.4839 18.4634 45.3419 19.2729 45.2048 20.0562C45.0951 20.6823 44.9817 21.3297 44.8746 21.9618C45.011 21.9602 45.1483 21.9585 45.2869 21.9569L45.4451 21.955C46.1859 21.9461 47.0501 21.9327 47.8979 21.9004C49.6617 21.8793 50.7045 20.987 50.6869 19.5128C50.67 18.2113 49.9661 17.5588 48.5933 17.5752Z" fill="white"/>
<path opacity="0.75" d="M58.379 13.797C62.2163 13.6465 66.0555 13.4959 69.8953 13.3715C69.6792 14.5773 69.4883 15.7829 69.2726 16.9882C66.6104 17.0724 63.9736 17.1301 61.3114 17.2143L60.5947 21.5388C62.6945 21.5137 64.8192 21.4621 66.9185 21.437C66.7023 22.6429 66.5111 23.8222 66.2954 25.0276C64.1957 25.0527 62.0707 25.0782 59.9711 25.0771L59.0406 30.7378C61.7808 30.7574 64.5213 30.7769 67.2611 30.7703C67.0447 31.9499 66.8538 33.1555 66.6378 34.3347L54.8305 34.1625C56.0579 27.452 57.2295 20.6374 58.379 13.797Z" fill="white"/>
<path opacity="0.75" d="M72.5771 34.6036L72.5335 34.6041C71.9054 34.567 71.3162 34.2875 70.8902 33.8243C70.4642 33.3612 70.2346 32.7507 70.2499 32.1216C70.2331 30.7136 71.1904 29.5992 72.4299 29.5844L72.4735 29.5839C73.7167 29.5951 74.7413 30.7443 74.758 32.1453C74.7789 32.4505 74.7387 32.7568 74.64 33.0463C74.5412 33.3359 74.3858 33.6028 74.1828 33.8316C73.9798 34.0605 73.7332 34.2466 73.4576 34.3791C73.1819 34.5116 72.8826 34.5879 72.5771 34.6036ZM74.7478 27.0979C74.2605 27.1037 73.7601 27.1027 73.2759 27.1019C72.7916 27.1012 72.2903 27.1002 71.8044 27.106C72.2668 22.9118 72.8076 17.9825 73.3021 13.2247C74.0336 13.2037 74.7813 13.1751 75.5027 13.1473C76.2469 13.1192 77.0158 13.0896 77.7805 13.0673C77.4758 14.4823 77.173 15.8929 76.8722 17.2991L76.8702 17.3096C76.1764 20.5248 75.4612 23.8502 74.7482 27.0978L74.7478 27.0979Z" fill="white"/>
</g>
<path d="M1.02159 33.4702C2.20684 27.6504 3.36586 21.7511 4.5491 15.7992L8.10699 15.6781C7.67312 17.959 7.21398 20.2398 6.78055 22.5207C9.1615 22.466 11.5171 22.4378 13.898 22.3832C14.3298 20.0762 14.7897 17.7431 15.2225 15.4099L18.7808 15.2889C17.5999 21.4757 16.4437 27.6108 15.262 33.6922L11.7023 33.6563C12.2336 30.9557 12.7644 28.2556 13.2954 25.5284C10.9141 25.5569 8.55852 25.5851 6.17694 25.5874C5.64537 28.2632 5.11389 30.9101 4.58198 33.5584C3.40348 33.494 2.19859 33.4823 1.02159 33.4702Z" fill="#FFCD31"/>
<path d="M27.3903 34.0475C27.2855 34.0488 27.1797 34.0488 27.073 34.0474C25.0845 34.0602 23.1676 33.3055 21.7214 31.9404C20.2781 30.5783 19.5313 28.6337 19.5017 26.1613C19.4652 23.1057 20.3215 20.508 22.0464 18.4405C22.9905 17.2652 24.1836 16.3141 25.5397 15.6557C26.8958 14.9973 28.3811 14.6481 29.8884 14.6332C29.9674 14.6302 30.0458 14.6283 30.1237 14.6274C31.0615 14.5929 31.9969 14.7457 32.875 15.077C33.7531 15.4083 34.5563 15.9114 35.2378 16.5568C36.6816 17.9193 37.4286 19.9166 37.4594 22.4937C37.4981 25.7319 36.643 28.4346 34.9185 30.5269C33.0094 32.8595 30.5465 34.0098 27.3903 34.0475ZM29.7328 17.8773L29.6217 17.8786C28.7501 17.9069 27.8952 18.1253 27.1168 18.5187C26.3385 18.9121 25.6556 19.4709 25.1158 20.1559C23.7736 21.7454 23.0681 23.7759 23.1354 25.8554C23.1539 27.401 23.5206 28.6152 24.2247 29.4647C24.599 29.8992 25.0672 30.2429 25.5938 30.47C26.1203 30.6971 26.6916 30.8015 27.2645 30.7754C27.3259 30.7747 27.3874 30.7766 27.4484 30.7759C28.2843 30.7671 29.1074 30.5694 29.8561 30.1975C30.6048 29.8257 31.2597 29.2893 31.7719 28.6285C33.1295 26.9968 33.8345 24.9199 33.7507 22.7987C33.7319 21.2243 33.3746 19.9952 32.6888 19.1463C32.3312 18.7164 31.8769 18.3773 31.3632 18.1568C30.8494 17.9362 30.2907 17.8404 29.7328 17.8773Z" fill="#FFCD31"/>
<path d="M46.1884 34.0627C46.093 34.0639 45.988 34.0651 45.8663 34.0614C44.5663 34.0373 43.265 34.0188 42.0522 34.0028L42.036 34.003C40.8285 33.9856 39.5293 33.9676 38.2084 33.9433L38.5655 31.9515L38.5684 31.9384L38.6297 31.5967L38.6296 31.5906C39.6387 25.9852 40.6782 20.1885 41.6872 14.3895L41.8366 14.3842L42.0031 14.3783C44.1018 14.3057 46.2724 14.2261 48.3939 14.1266C48.4645 14.1258 48.5337 14.1219 48.6035 14.1211C49.8255 14.0448 51.0302 14.4407 51.969 15.2269C52.4015 15.66 52.7396 16.178 52.9619 16.7483C53.1843 17.3186 53.2861 17.9288 53.2609 18.5404C53.3081 19.4935 53.0832 20.4403 52.6126 21.2703C52.1419 22.1003 51.4448 22.7793 50.6028 23.2278C51.885 23.8346 52.7271 25.3652 52.7482 27.1258C52.7738 29.273 52.1734 31.041 51.0122 32.2385C49.879 33.4069 48.2106 34.0372 46.1884 34.0627ZM43.3042 25.382C42.9317 27.476 42.6513 29.1086 42.3942 30.6758C42.9387 30.682 43.4866 30.682 44.0166 30.6817L44.1151 30.6805C44.6739 30.6804 45.2518 30.68 45.8255 30.6867L45.9057 30.6857C46.7707 30.7212 47.6212 30.4547 48.3114 29.9319C48.6159 29.6583 48.854 29.3188 49.0074 28.9392C49.1608 28.5596 49.2255 28.15 49.1966 27.7416C49.1775 26.1449 48.3149 25.3456 46.6332 25.3657C45.5054 25.3531 44.3862 25.3665 43.3037 25.3794L43.3042 25.382ZM47.6206 17.5869L47.5391 17.5879C47.0638 17.6062 46.5867 17.6185 46.1252 17.6305C45.6407 17.6429 45.1426 17.6558 44.6438 17.6757C44.5113 18.4751 44.3693 19.2846 44.2322 20.0679C44.1224 20.694 44.009 21.3414 43.9019 21.9735C44.0383 21.9719 44.1756 21.9703 44.3142 21.9686L44.4724 21.9667C45.2133 21.9578 46.0775 21.9445 46.9253 21.9121C48.689 21.891 49.7318 20.9987 49.7142 19.5245C49.6973 18.223 48.9934 17.5705 47.6206 17.5869Z" fill="#FFCD31"/>
<path d="M57.4063 13.8087C61.2437 13.6582 65.0828 13.5076 68.9227 13.3832C68.7065 14.5891 68.5156 15.7946 68.2999 17C65.6377 17.0841 63.001 17.1418 60.3388 17.226L59.6221 21.5506C61.7218 21.5254 63.8465 21.4739 65.9458 21.4487C65.7297 22.6546 65.5385 23.8339 65.3228 25.0393C63.223 25.0645 61.098 25.0899 58.9984 25.0888L58.068 30.7495C60.8081 30.7691 63.5487 30.7886 66.2885 30.782C66.072 31.9617 65.8812 33.1672 65.6651 34.3464L53.8579 34.1742C55.0852 27.4637 56.2568 20.6492 57.4063 13.8087Z" fill="#FFCD31"/>
<path d="M71.6045 34.6153L71.5609 34.6158C70.9328 34.5787 70.3436 34.2992 69.9176 33.8361C69.4915 33.3729 69.262 32.7624 69.2773 32.1333C69.2604 30.7254 70.2178 29.6109 71.4572 29.5961L71.5008 29.5956C72.7441 29.6069 73.7686 30.756 73.7854 32.157C73.8062 32.4622 73.7661 32.7685 73.6673 33.058C73.5685 33.3476 73.4131 33.6145 73.2101 33.8434C73.0071 34.0722 72.7606 34.2583 72.4849 34.3908C72.2092 34.5234 71.9099 34.5997 71.6045 34.6153ZM73.7751 27.1096C73.2879 27.1154 72.7875 27.1144 72.3032 27.1137C71.8189 27.1129 71.3177 27.1119 70.8317 27.1178C71.2942 22.9235 71.8349 17.9942 72.3294 13.2364C73.061 13.2154 73.8086 13.1869 74.5301 13.159C75.2742 13.131 76.0432 13.1013 76.8079 13.079C76.5031 14.494 76.2003 15.9046 75.8996 17.3109L75.8975 17.3213C75.2037 20.5365 74.4886 23.8619 73.7755 27.1096L73.7751 27.1096Z" fill="#FFCD31"/>
</svg>
